<?xml version="1.0" encoding="UTF-8"?><svg id="Layer_1" xmlns="http://www.w3.org/2000/svg" viewBox="0 0 283.46 283.46"><defs><style>.cls-1{fill:#fff;}</style></defs><path class="cls-1" d="M9.17,76.63h4.33v-7.54c1.36-.12,2.46-.21,3.83-.33,.06-2.5,.13-4.97,.19-7.53,1.33-.11,2.43-.2,3.78-.31v-11.39c1.35-.11,2.45-.2,3.83-.32,.3-3.78-.07-7.58,.22-11.43,1.29-.11,2.39-.2,3.75-.32v-7.24c1.96-.5,8.31-.6,11.49-.22,.5,1.87,.18,3.81,.23,5.73,.05,1.85,.01,3.7,.01,5.68,1.36,.09,2.47,.16,3.84,.25,.05,3.85,.09,7.62,.14,11.48,1.32,.09,2.43,.16,3.77,.25v11.42c1.38,.12,2.54,.22,3.94,.34v7.49c1.32,.1,2.42,.19,3.82,.3,.07,1.14,.15,2.31,.24,3.63h7.36c.68-.84,.38-1.85,.39-2.79,.02-11.89,.01-23.77,.01-35.66,0-4.48,0-8.96,0-13.43,0-.8,0-1.59,0-2.56,2.64-.22,5.04-.21,7.56-.02,.41,2.66,.15,5.25,.19,7.82,.05,2.52,.01,5.05,.01,7.57v23.45c0,2.52,0,5.05,0,7.57,0,2.6,0,5.2,0,7.97,2.55,.55,5.08-.03,7.66,.38v3.35c-1.85,.44-35.34,.56-38.69,.13v-3.44c1.12-.12,2.29-.24,3.58-.38v-7.5c-1.21-.11-2.31-.22-3.6-.34-.1-1.12-.2-2.22-.3-3.3-1.73-.57-16.45-.69-19.31-.14v11.3c1.15,.1,2.32,.2,3.61,.31v3.6c-5.35,.2-10.61,.11-15.88,.05v-3.91Zm27.65-31.23c-2.1,0-3.96-.01-5.81,0-.55,0-1.09,.11-1.71,.17-.54,2.53,.15,5.07-.45,7.51-1.24,.1-2.34,.19-3.49,.29-.2,1.36-.35,2.53,.11,3.69,1.19,.09,2.29,.17,3.49,.26,.1,1.31,.2,2.47,.29,3.61h7.57v-15.53Z"/><path class="cls-1" d="M9.17,252.58h4.18c.11-1.29,.2-2.39,.31-3.65,1.17-.09,2.28-.18,3.57-.29,.12-1.2,.24-2.37,.36-3.63,1.22-.1,2.33-.2,3.57-.3,.1-1.19,.2-2.3,.31-3.61,1.14-.09,2.24-.17,3.59-.27,.11-1.17,.22-2.34,.33-3.63,1.2-.1,2.31-.19,3.6-.3,.09-1.16,.18-2.27,.29-3.57,1.17-.12,2.34-.24,3.64-.37,.05-.81,.13-1.52,.13-2.24,.02-1.69,0-3.38,0-5.25-1.34-.12-2.44-.22-3.74-.34-.1-1.11-.2-2.22-.29-3.3-1.7-.58-8.6-.69-11.59-.14v7.31h-3.54c-.45-1.7-.57-7.78-.18-11.32,1.12-.11,2.28-.22,3.56-.35,.11-1.21,.21-2.32,.32-3.58h11.35c.09,1.14,.18,2.24,.29,3.6,2.41,.39,4.92-.05,7.54,.27,.09,1.21,.18,2.31,.28,3.65,1.16,.09,2.33,.18,3.64,.28v11.37c-1.17,.11-2.27,.21-3.58,.33-.1,1.12-.19,2.22-.31,3.59-1.14,.09-2.3,.19-3.61,.3-.1,1.21-.2,2.31-.3,3.57-1.21,.14-2.37,.27-3.62,.41-.1,1.21-.2,2.32-.3,3.54-1.19,.11-2.3,.2-3.57,.32v3.41c1.5,.51,7.87,.64,11.41,.18,.11-1.12,.23-2.29,.35-3.55h3.55v11.2c-2.29,.49-20.97,.65-31.52,.29v-3.91Z"/><path class="cls-1" d="M259.49,33.57h-3.44c-.13-1.18-.26-2.34-.4-3.63-2.52-.34-4.92-.09-7.49-.17-.11,1.31-.2,2.41-.31,3.72-1.11,.1-2.21,.21-3.3,.31-.57,1.6-.72,7.62-.28,11.3,1.83,.46,12.88,.51,15.34,.04,.09-1.06,.19-2.17,.3-3.44,1.16-.09,2.27-.18,3.52-.28,.58-2.47-.07-5.01,.44-7.56h3.66v11.53c3.95,.04,7.71,.08,11.6,.12v3.6c-1.83,.41-3.77,.15-5.68,.19-1.85,.04-3.71,0-5.5,0-.53,2.12-.58,20.87-.09,23.5h11.23v3.7c-1.11,.1-2.21,.2-3.59,.32-.08,1.09-.16,2.19-.25,3.28-1.6,.59-8.15,.72-11.44,.2-.09-1.05-.19-2.15-.3-3.45-1.17-.11-2.27-.21-3.61-.33-.29-2.23-.1-4.49-.13-6.74-.03-2.2,0-4.4,0-6.59v-13.35c-1.78-.65-12.29-.79-15.34-.27-.42,1.82-.58,22.33-.19,26.94,2.39,.54,4.92-.06,7.51,.37v3.35c-1.83,.44-15.9,.55-19.15,.14v-3.44c1.12-.12,2.29-.24,3.58-.38v-27.05c-1.2-.11-2.3-.21-3.54-.32-.08-.56-.19-1.1-.21-1.64-.02-.56,.05-1.13,.1-1.89,1.19-.12,2.35-.24,3.77-.39v-7.45c1.35-.11,2.46-.21,3.77-.32,.46-3.78-.13-7.59,.38-11.6h7.42c.12-1.36,.22-2.47,.34-3.73h11.15c.46,1.75,.57,7.82,.16,11.41Z"/><path class="cls-1" d="M44.62,139.3v11.22q-1.54,.52-3.59,.16c-.1-1.06-.21-2.17-.34-3.52-5.09-.17-10.09-.1-15.35-.03-.27,5.21-.13,10.28-.08,15.59h7.62c.23,2.62,.15,5.02,.05,7.38-1.81,.52-15.08,.69-19,.26-.54-1.77-.58-5.08-.06-7.48,1.06-.09,2.17-.18,3.23-.27,.41-2,.47-40.07,.06-42.73-1.04-.1-2.14-.21-3.33-.33-.48-1.15-.36-2.31-.09-3.58H48.5v11.35c-2.51,.32-4.91,.23-7.47,.07-.11-1.2-.21-2.3-.3-3.37-1.79-.51-11.47-.65-15.09-.24-.55,1.62-.71,11.68-.19,15.46,3.09,.1,6.24,.03,9.38,.05,3.17,.01,6.33,0,9.79,0Z"/><path class="cls-1" d="M79.97,233.01c1.3,.08,2.4,.15,3.74,.24,.21,2.46,.13,4.86,.03,7.46-1.18,.11-2.27,.21-3.55,.33-.63,2.4,0,4.94-.42,7.51-1.18,.1-2.28,.2-3.58,.32-.1,1.14-.19,2.23-.3,3.6-1.15,.1-2.31,.2-3.61,.31-.1,1.21-.19,2.31-.28,3.38-1.83,.48-15.37,.61-19.14,.2-.07-.49-.18-1.02-.23-1.55-.06-.56-.08-1.13-.13-1.98-1.17-.11-2.33-.21-3.76-.34v-11.37c-1.36-.13-2.46-.23-3.85-.35-.16-2.4-.09-4.8-.04-7.43,1.25-.12,2.41-.24,3.82-.38v-11.38c1.34-.11,2.45-.19,3.76-.3,.12-1.18,.23-2.35,.37-3.76h7.45c.11-1.35,.21-2.45,.31-3.61,1.17-.58,2.41-.26,3.59-.31,1.21-.05,2.42-.01,3.89-.01,.09,1.29,.18,2.46,.28,3.85h7.56c.09,1.38,.16,2.54,.24,3.85,1.23,.08,2.34,.15,3.71,.24,.22,3.81-.01,7.6,.15,11.49Zm-23.19-11.5c-.45,2.36-.42,25.19,.03,27.17,1.08,.07,2.19,.14,3.4,.22,.12,1.29,.23,2.46,.34,3.58,3.51,.4,5.99,.31,7.57-.27,.1-1.09,.21-2.19,.32-3.3,1.3-.11,2.4-.2,3.72-.31,0-2.76,0-5.35,0-7.94s.04-5.04-.01-7.57c-.05-2.56,.22-5.14-.19-7.68-1.37-.12-2.47-.22-3.57-.32-.12-1.32-.22-2.42-.33-3.59h-11.27Z"/><path class="cls-1" d="M228.29,131.7c.08,1.06,.17,2.16,.27,3.54,1.12,.08,2.29,.17,3.72,.28,.2,9.06-.04,18.05,.14,27.12,1.33,.08,2.44,.15,3.69,.23v3.57c-1.13,.1-2.23,.21-3.56,.33-.1,1.1-.21,2.19-.32,3.38-1.09,.74-2.28,.2-3.61,.37-.11-1.45-.18-2.49-.26-3.49-1.98-.54-9.28-.58-11.54-.06-.06,1.01-.12,2.05-.19,3.07-1.67,.6-4.6,.68-7.55,.19-.09-1.05-.19-2.15-.31-3.45-1.17-.1-2.28-.2-3.36-.3-.46-1.75-.6-11.59-.2-15.25,2.39-.56,4.93,.11,7.48-.42,.1-1.19,.2-2.3,.32-3.65h11.44c.21-2.64,.12-5.05,.07-7.73-1.26-.11-2.43-.21-3.7-.33-.11-1.22-.21-2.32-.33-3.59h-3.6c-.1,1.07-.21,2.17-.32,3.33-1.01,.84-2.38,.04-3.63,.72-.09,1.01-.18,2.11-.29,3.39-2.42,.38-4.83,.16-7.5,.16-.25-2.51-.11-4.92-.09-7.54,1.25-.12,2.42-.23,3.7-.35,.11-1.21,.21-2.32,.31-3.4,1.82-.42,16.05-.52,19.2-.12m-11.42,19.38c-.12,1.35-.21,2.46-.31,3.64-1.24,.11-2.34,.21-3.57,.31-.29,2.58-.27,5.04-.03,7.47,3.12,.42,5.92,.34,7.59-.21,.1-1.08,.2-2.18,.3-3.33,1.29-.11,2.38-.2,3.66-.3,.04-2.62,.24-5.08-.14-7.59h-7.52Z"/><path class="cls-1" d="M134.71,33.59v11.75c1.32,.08,2.42,.16,3.69,.24,.09,1.21,.17,2.32,.28,3.72,3.77,.04,7.54,.09,11.45,.14,.09,1.29,.17,2.4,.26,3.69,1.14,.09,2.25,.17,3.4,.26,.84,1.05,.05,2.39,.67,3.67,1.01,.07,2.12,.16,3.52,.26,.07,2.46,.13,4.94,.2,7.57,1.23,.08,2.33,.15,3.49,.22,.59,1.13,.21,2.25,.34,3.6-1.3,.11-2.47,.2-3.84,.32-.03,1.32-.07,2.52-.08,3.71-.01,1.21,0,2.41,0,3.76-1.31,.12-2.41,.22-3.71,.34-.11,1.11-.21,2.21-.34,3.59-2.18,.36-4.44,.12-6.68,.16-2.28,.04-4.56,0-6.84,0h-6.59c-2.26,0-4.51,0-6.91,0v-15.44h7.55v7.49c1.38,.12,2.55,.22,3.85,.34,.08,1.21,.16,2.32,.23,3.4,1.96,.47,9.22,.49,11.53,.03v-15.27h-7.47c-.13-1.37-.23-2.46-.36-3.76-2.43-.59-4.98,.07-7.5-.43-.11-1.19-.22-2.29-.34-3.53-1.2-.11-2.3-.22-3.55-.34-.11-1.15-.21-2.25-.34-3.54-1.14-.12-2.25-.23-3.35-.35-.52-1.76-.58-8.93-.07-11.41,1.06-.09,2.17-.19,3.4-.29,.1-1.19,.2-2.3,.31-3.62,1.31-.07,2.58-.14,3.85-.21l-.07-.07Z"/><path class="cls-1" d="M91.57,217.34c.09-1.29,.16-2.33,.24-3.47,1.84-.57,3.71-.21,5.54-.27,1.86-.06,3.73-.01,5.86-.01,.09,1.28,.17,2.45,.27,3.84h7.56c.09,1.38,.16,2.55,.24,3.86,1.23,.08,2.33,.15,3.41,.21,.48,1.78,.59,7.72,.2,11.4-1.11,.11-2.27,.23-3.55,.36-.1,1.2-.19,2.31-.29,3.56-1.17,.11-2.28,.21-3.58,.33-.1,1.11-.21,2.2-.32,3.38-1.03,.76-2.37,.07-3.63,.65-.09,1.06-.19,2.16-.3,3.46-1.12,.1-2.22,.2-3.41,.3-.62,1.14-.32,2.32-.26,3.79,3.84,.07,7.61,.07,11.5,0,.11-1.34,.21-2.45,.31-3.71h3.66c.11,3.71,.04,7.41,.04,11.37-2.7,.28-5.28,.11-7.85,.14-2.6,.03-5.21,0-7.81,0s-5.04,0-7.57,0c-2.58,0-5.16,0-7.84,0v-3.7c1.23-.1,2.33-.19,3.61-.3,.1-1.17,.19-2.28,.29-3.57,1.18-.12,2.35-.24,3.62-.36,.1-1.22,.2-2.32,.31-3.58,1.18-.1,2.28-.19,3.56-.29,.12-1.2,.24-2.37,.37-3.63,1.23-.1,2.33-.2,3.57-.3,.1-1.2,.2-2.31,.31-3.61,1.14-.09,2.24-.17,3.32-.25,.55-1.75,.64-12.73,.14-15.23-1.81-.44-8.34-.51-11.31-.1-.41,2.32,.03,4.76-.26,7.22-1.09,.6-2.22,.27-3.3,.27-.57-1.69-.67-8.64-.15-11.47,1.06-.09,2.16-.18,3.48-.29Z"/><path class="cls-1" d="M142.57,233.25c-.05,.74-.1,1.23-.11,1.71-.02,.56,0,1.12,0,1.94,1.27,.09,2.44,.18,3.75,.27,.09,1.2,.18,2.31,.28,3.63,1.17,.09,2.33,.19,3.64,.29v15.27c-1.18,.11-2.28,.21-3.58,.32-.1,1.13-.19,2.23-.3,3.46-2.41,.75-4.97-.08-7.54,.52-.09,1.14-.18,2.24-.29,3.55-3.81,.36-7.62-.07-11.44,.26-.11,1.31-.2,2.41-.3,3.65h-3.56v-7.56h11.36c.14-1.4,.26-2.57,.38-3.83,1.22-.1,2.33-.2,3.57-.3,.1-1.19,.2-2.3,.31-3.61,1.13-.09,2.24-.17,3.32-.25,.56-1.76,.62-5.03,.11-7.59-1.05-.1-2.15-.21-3.4-.33-.11-1.14-.22-2.25-.34-3.54-3.78-.56-7.59,.12-11.42-.41v-3.66h7.48c.12-1.35,.22-2.46,.33-3.77,1.13-.08,2.23-.17,3.31-.25,.56-1.74,.65-8.81,.15-11.32-1.8-.44-8.31-.52-11.3-.1-.45,2.32,.04,4.76-.3,7.35h-3.58c-.11-1.16-.21-2.26-.33-3.5-1.19-.11-2.29-.22-3.56-.34v-3.56c1.09-.08,2.2-.17,3.55-.27,.11-1.17,.21-2.33,.33-3.62,1.19-.1,2.3-.19,3.6-.3,.09-1.15,.18-2.26,.28-3.47,1.82-.59,3.69-.22,5.52-.28,1.86-.07,3.73-.01,5.57-.01,.88,1.17,.16,2.49,.74,3.83h7.07c.59,1.92,.67,12.97,.17,15.52-1.07,.1-2.18,.2-3.48,.31Z"/><path class="cls-1" d="M52.95,139.42c1.06-.09,2.17-.18,3.39-.29,.11-1.21,.2-2.32,.32-3.61,1.15-.09,2.26-.17,3.57-.27,.12-1.18,.23-2.35,.36-3.65h15.26c.09,1.21,.17,2.31,.27,3.62,1.18,.1,2.35,.19,3.65,.3,.08,1.22,.15,2.32,.24,3.61,1.16,.09,2.26,.17,3.36,.25,.55,1.66,.62,4.9,.14,7.51-1.07,.09-2.17,.19-3.44,.3-.1,1.17-.2,2.27-.31,3.61-.79,.05-1.57,.14-2.35,.15-4.8,.01-9.6,0-14.4,.01-.79,0-1.59,.07-2.51,.12v7.59c1.12,.09,2.22,.18,3.37,.27,.84,1.04,.05,2.38,.72,3.77,4.86,.08,9.88-.02,14.91,.05,.7,1.15,.29,2.28,.36,3.38-1.08,.9-2.44,.1-3.71,.78-.09,1-.18,2.1-.28,3.18-1.75,.5-7.57,.62-11.36,.22-.12-1.11-.25-2.27-.41-3.69h-7.44c-.12-1.36-.22-2.47-.33-3.76-1.17-.11-2.27-.2-3.36-.3-.51-1.89-.55-20.79-.03-23.16Zm11.18-.35c-1.28,.12-2.45,.24-3.76,.36,0,2.14,0,4.08,0,6.02,0,.47,.07,.93,.1,1.35,2.64,.46,9.6,.4,11.54-.08,.1-1.06,.19-2.17,.3-3.38,1.26-.11,2.42-.22,3.56-.32v-3.62c-1.26-.12-2.36-.22-3.59-.34-.11-1.25-.21-2.41-.32-3.7-2.67-.01-5.07-.16-7.53,.08-.11,1.31-.2,2.41-.29,3.62Z"/><path class="cls-1" d="M103.21,154.86h-7.42c-.12-1.28-.23-2.38-.35-3.67-1.14-.12-2.24-.24-3.57-.38-.11-1.12-.23-2.28-.37-3.57-1.21-.11-2.32-.22-3.54-.33-.33-2.48-.19-4.88-.11-7.46,1.23-.1,2.33-.19,3.65-.29,.11-1.18,.22-2.36,.35-3.63,1.21-.1,2.32-.19,3.58-.3,.1-1.18,.19-2.29,.28-3.38,1.73-.46,11.41-.59,15.06-.22,.5,1.66,.62,7.16,.25,11.08q-1.51,.51-3.56,.14c-.1-1.06-.21-2.17-.33-3.42-1.19-.11-2.29-.21-3.56-.33-.1-1.13-.21-2.23-.33-3.54h-3.65c-.09,1.15-.18,2.26-.29,3.51-1.17,.11-2.27,.21-3.57,.33v3.68c1.11,.08,2.21,.15,3.57,.25,.08,1.19,.16,2.36,.26,3.75h7.52c.1,1.32,.19,2.43,.29,3.8,1.13,.08,2.3,.17,3.64,.27,.09,1.18,.17,2.29,.27,3.65,1.15,.08,2.32,.17,3.6,.26,.33,2.5,.18,4.9,.13,7.46-1.24,.12-2.34,.22-3.65,.34-.11,1.11-.21,2.2-.34,3.52-2.38,.62-4.92-.08-7.52,.43-.1,1.15-.19,2.25-.28,3.32-1.79,.49-7.81,.6-11.39,.2-.1-1.04-.2-2.14-.33-3.52-1.14-.11-2.31-.21-3.6-.33v-7.42c2.49-.41,4.88-.12,7.45-.19,.1,1.29,.19,2.4,.27,3.51,1.69,.48,8.63,.57,11.49,.12v-3.53c-1.09-.09-2.19-.18-3.55-.29-.11-1.13-.23-2.29-.39-3.81Z"/><path class="cls-1" d="M181.47,158.71h3.97v-7.52c1.35-.11,2.45-.19,3.84-.3,.07-2.48,.15-4.95,.22-7.53,1.27-.1,2.38-.19,3.64-.3v-3.61c-1.11-.11-2.21-.22-3.31-.32-.55-1.68-.61-4.93-.12-7.5h11.21v7.45c-1.17,.11-2.27,.21-3.64,.33-.07,2.5-.14,4.96-.22,7.5-1.29,.12-2.4,.22-3.76,.34v7.45c-1.34,.13-2.44,.23-3.66,.34-.6,1.9-.22,3.85-.29,5.76-.06,1.85-.01,3.7-.01,5.65-1.37,.12-2.47,.22-3.74,.33-.1,1.17-.2,2.27-.31,3.56h-3.53c-.11-1.09-.24-2.25-.37-3.53-1.22-.12-2.32-.22-3.69-.35v-7.45c-1.36-.13-2.46-.23-3.76-.35-.46-3.7,.07-7.43-.33-11.4-1.17-.11-2.33-.22-3.76-.35v-7.45c-1.36-.13-2.46-.24-3.79-.36-.25-2.43-.09-4.83-.08-7.2,1.82-.49,11.44-.63,15.25-.23,.55,1.03,.2,2.15,.24,3.52-1.22,.1-2.38,.19-3.83,.31-.05,3.89-.04,7.65,0,11.5,1.38,.1,2.48,.17,3.82,.27v11.46Z"/><path class="cls-1" d="M181.61,49.23v3.8c-1.33,.12-2.43,.22-3.52,.31-.57,1.66-.76,18.85-.25,23.22,1.12,.11,2.29,.21,3.57,.33v3.23c-1.54,.57-11.82,.73-15.29,.19v-3.45c1.13-.09,2.23-.17,3.27-.25,.12-.12,.17-.18,.22-.24,.05-.06,.13-.13,.13-.2,.05-.73,.11-1.46,.11-2.19-.02-14.48-.05-28.97-.08-43.45,0-.14-.13-.28-.29-.62-.99-.1-2.09-.2-3.43-.33-.18-2.43-.09-4.83-.06-7.2,1.82-.49,7.81-.6,11.53-.21,.21,2.18,.07,4.44,.09,6.68,.02,2.28,0,4.56,0,6.84v13.59h4.05l-.07-.07Z"/><path class="cls-1" d="M247.82,119.87c-1.22-.12-2.32-.22-3.53-.34-.11-1.19-.21-2.29-.33-3.57-1.18-.11-2.28-.21-3.56-.32v-3.34c1.66-.47,11.04-.61,14.99-.23,.06,.06,.12,.11,.17,.17,.05,.06,.12,.13,.13,.19,.04,.57,.1,1.13,.1,1.7,0,18.64,0,37.28,0,55.87-1.76,.63-8.58,.74-11.53,.21v-7.3c1.2-.1,2.31-.2,3.39-.29,.44-1.79,.59-39.02,.15-42.75Z"/><path class="cls-1" d="M142.35,162.68v3.64c-2.42,.72-4.98-.07-7.55,.5-.09,1.14-.18,2.24-.29,3.47-2.46,.41-4.86,.21-7.46,.13-.11-1.17-.21-2.27-.34-3.63-1.16-.11-2.32-.21-3.74-.34v-27.01c-1.35-.12-2.45-.23-3.81-.35-.19-2.41-.1-4.82-.06-7.41,1.26-.13,2.43-.25,3.84-.4v-7.54c2.65-.11,5.05-.15,7.68,.05v7.41c2.65,.64,5.18,0,7.75,.45,.3,2.47,.17,4.86,.11,7.54h-7.26c-.59,1.95-.73,20.08-.23,23.51h11.35Z"/><path class="cls-1" d="M95.9,45.51h7.29v3.69c-2.44,.08-4.9,.15-7.5,.23v23.3c3.77,.27,7.55-.04,11.44,.18v3.61c-1.17,.1-2.28,.2-3.58,.32-.1,1.13-.2,2.22-.3,3.31-1.67,.56-12.35,.68-15.45,.12v-30.75c-1.35-.13-2.45-.23-3.64-.34-.47-1.16-.35-2.32-.09-3.59,1.2-.1,2.3-.19,3.65-.3v-7.57c2.64-.16,5.04-.06,7.52-.07,.77,2.61-.19,5.26,.65,7.85Z"/><path class="cls-1" d="M146.57,162.86c1.29-.08,2.33-.15,3.34-.21,.52-1.84,.59-20.65,.07-23.23-1.05-.1-2.15-.21-3.36-.32-.44-2.45-.13-4.86-.18-7.22,1.84-.49,7.84-.6,11.37-.23,.55,1.94,.19,3.96,.25,5.96,.07,2.11,.01,4.23,.01,6.34v18.65c1.3,.1,2.4,.19,3.79,.29,.26,2.38,.05,4.78,.12,7.12-1.76,.62-12.23,.76-15.43,.22v-7.37Z"/><path class="cls-1" d="M181.68,49.29v-3.71h15.35c.09,1.21,.17,2.32,.27,3.62,1.18,.1,2.34,.19,3.72,.31v27.04c1.36,.11,2.53,.21,3.82,.32v3.36c-1.89,.43-12.13,.52-15.25,.13v-3.45c1.11-.11,2.28-.24,3.57-.37v-23.12c-1.17-.12-2.26-.22-3.57-.35-.12-1.14-.25-2.3-.4-3.66-2.61-.06-5.1-.13-7.59-.19l.07,.07Z"/><path class="cls-1" d="M220.62,76.74h7.66v3.49c-1.81,.44-15.61,.57-19.14,.16v-3.52c1.21-.1,2.32-.19,3.7-.3,0-9.01,0-17.92,0-27.03-1.29-.13-2.39-.24-3.58-.36-.53-1.12-.36-2.28-.12-3.59h11.45c.04,3.49,.01,6.88,.02,10.27,0,3.42,0,6.83,0,10.25s0,6.82,0,10.63Z"/><path class="cls-1" d="M134.77,33.65v-3.71h22.96c.43,1.9,.5,8.37,.12,11.33-2.35,.42-4.75,.16-7.43,.18v-7.05c-1.02-1-1.96-.71-2.82-.72-4.3-.06-8.61-.07-12.91-.1l.07,.07Z"/><path class="cls-1" d="M216.65,29.66c.09-1.31,.15-2.35,.22-3.43,1.11-.59,2.23-.25,3.31-.25,.53,1.69,.64,8.37,.17,11.42-2.35,.34-4.73,.17-7.39,.1-.21-2.55-.1-4.99-.07-7.53,1.36-.11,2.46-.2,3.75-.31Z"/><path class="cls-1" d="M157.97,116.28c0,2.33,0,4.65,0,7.18-2.49,.29-4.88,.09-7.22,.13-.56-2.02-.59-5.34-.11-7.5,2.76-.44,5.71-.36,7.32,.2Z"/></svg>